<svg width="48" height="49" viewBox="0 0 48 49" fill="none" xmlns="http://www.w3.org/2000/svg">
<rect x="0.5" y="1" width="47" height="47" rx="7.5" fill="white"/>
<path d="M26.4215 24.4999H33.8081L29.8249 34.2562C29.2703 35.6176 27.9593 36.5 26.4971 36.5H19.1105L23.0937 26.7436C23.6483 25.357 24.9593 24.4999 26.4215 24.4999Z" fill="#94C5FF"/>
<path d="M33.8061 24.4999L29.3186 30.1974C28.6379 31.105 27.6043 31.6848 26.3942 31.6848H21.0244L23.0665 26.7184C23.6211 25.3822 24.932 24.4999 26.3942 24.4999H33.8061Z" fill="#1A32AF"/>
<path d="M23.9498 18.4999H31.3364L27.3532 28.2564C26.7986 29.6177 25.4876 30.5001 24.0254 30.5001H16.6388L20.622 20.7437C21.1767 19.3823 22.5128 18.4999 23.9498 18.4999Z" fill="#0092FF"/>
<path d="M31.3598 18.4999L26.8723 24.1975C26.1917 25.1051 25.158 25.6849 23.9479 25.6849H18.5781L20.6202 20.7185C21.1748 19.3823 22.4857 18.4999 23.9479 18.4999H31.3598Z" fill="#1A32AF"/>
<path d="M21.5032 12.5H28.8898L24.9066 22.2564C24.3519 23.6178 23.041 24.5001 21.5788 24.5001H14.1921L18.1754 14.7437C18.73 13.3824 20.041 12.5 21.5032 12.5Z" fill="#0055FF"/>
<rect x="0.5" y="1" width="47" height="47" rx="7.5" stroke="#EDEDED"/>
</svg>
