<svg width="33" height="32" viewBox="0 0 33 32" fill="none" xmlns="http://www.w3.org/2000/svg">
  <path d="M20.139 16H29.9879L24.6768 29.0086C23.9373 30.8237 22.1894 32.0002 20.2398 32.0002H10.3909L15.7019 18.9916C16.4414 17.1429 18.1893 16 20.139 16Z" fill="#94C5FF"/>
  <path d="M29.9854 16L24.0021 23.5968C23.0946 24.8069 21.7164 25.58 20.1029 25.58H12.9431L15.6659 18.958C16.4054 17.1765 18.1533 16 20.1029 16H29.9854Z" fill="#1A32AF"/>
  <path d="M16.8435 8H26.6925L21.3814 21.0087C20.6419 22.8238 18.894 24.0003 16.9444 24.0003H7.09546L12.4065 10.9917C13.146 9.17649 14.9275 8 16.8435 8Z" fill="#0092FF"/>
  <path d="M26.7237 8L20.7404 15.5968C19.8328 16.8069 18.4547 17.58 16.8412 17.58H9.6814L12.4041 10.958C13.1436 9.1765 14.8916 8 16.8412 8H26.7237Z" fill="#1A32AF"/>
  <path d="M13.5814 0H23.4303L18.1193 13.0086C17.3797 14.8238 15.6318 16.0003 13.6822 16.0003H3.83325L9.14429 2.99165C9.8838 1.17649 11.6317 0 13.5814 0Z" fill="#0055FF"/>
</svg>
